<svg width="50" height="96" viewBox="0 0 50 96" fill="none" xmlns="http://www.w3.org/2000/svg">
<path d="M22.6383 93.7251L19.9683 91.5199C30.8083 78.5464 35.1283 63.149 32.4683 46.9768C29.9283 31.5199 21.0583 16.8378 7.46826 5.65233L9.68826 3C23.9083 14.7119 33.2083 30.1391 35.8783 46.4205C37.2598 54.7875 36.7912 63.353 34.5048 71.5219C32.2184 79.6908 28.1691 87.2673 22.6383 93.7251Z" fill="#436602" stroke="#436602" stroke-width="3" stroke-miterlimit="10"/>
<path d="M12.3781 85.0329C4.6681 78.6752 1.13808 69.9633 2.17808 59.821C3.07808 51.0395 7.42808 41.5825 14.4281 33.2084L17.4981 29.5229V67.8176H14.0281V39.417C9.26809 46.1918 6.32811 53.4137 5.63811 60.1686C4.71811 69.109 7.81811 76.7878 14.6381 82.3806L12.3781 85.0329Z" fill="#436602" stroke="#436602" stroke-width="3" stroke-miterlimit="10"/>
<path d="M39.848 25.4499C38.2297 25.4499 36.6478 24.9731 35.3024 24.0798C33.957 23.1864 32.9085 21.9168 32.2897 20.4314C31.6709 18.946 31.5094 17.3117 31.8259 15.7352C32.1423 14.1586 32.9224 12.7107 34.0674 11.5747C35.2124 10.4387 36.6709 9.66559 38.2583 9.35317C39.8457 9.04076 41.4907 9.20309 42.9853 9.81964C44.4798 10.4362 45.7566 11.4792 46.6542 12.8168C47.5519 14.1544 48.0299 15.7264 48.028 17.334C48.0253 19.4874 47.1623 21.5517 45.6286 23.0734C44.0948 24.5952 42.0157 25.4499 39.848 25.4499ZM39.848 12.6552C38.916 12.6532 38.0044 12.926 37.2285 13.4389C36.4527 13.9518 35.8474 14.6819 35.4894 15.5366C35.1313 16.3914 35.0367 17.3324 35.2173 18.2407C35.3979 19.149 35.8456 19.9836 36.504 20.6389C37.1623 21.2942 38.0015 21.7408 38.9154 21.9222C39.8293 22.1035 40.7769 22.0114 41.6381 21.6576C42.4993 21.3038 43.2355 20.7041 43.7535 19.9344C44.2715 19.1648 44.548 18.2598 44.548 17.334C44.5493 16.72 44.4287 16.1119 44.1931 15.5443C43.9575 14.9767 43.6115 14.4608 43.1749 14.0262C42.7383 13.5916 42.2198 13.2468 41.6489 13.0116C41.078 12.7763 40.466 12.6552 39.848 12.6552Z" fill="#436602" stroke="#436602" stroke-width="3" stroke-miterlimit="10"/>
</svg>
