<svg width="48" height="48" viewBox="0 0 48 48" fill="none" xmlns="http://www.w3.org/2000/svg">
<rect width="48" height="48" rx="24" fill="#F1F5FF"/>
<path d="M21.2414 27.0038C22.5218 25.6655 23.7613 24.3842 25.0007 23.0934C26.8065 21.2046 28.6205 19.3253 30.418 17.427C30.6232 17.2182 30.73 16.886 30.8777 16.6108C30.5248 16.364 30.2867 16.6772 30.0405 16.8576C26.2647 19.6195 22.489 22.391 18.7215 25.172C18.467 25.3618 18.2536 25.3997 17.9663 25.2858C16.6448 24.7448 15.3069 24.2323 13.9772 23.7103C13.9526 23.7008 13.9197 23.7008 13.8951 23.6818C13.4601 23.492 13.0168 23.2547 13.0004 22.6473C12.984 22.0493 13.4437 21.869 13.8377 21.6886C20.0348 18.8697 26.2319 16.0603 32.429 13.2509C32.7081 13.1275 33.0036 13.0326 33.2991 13.0041C33.7998 12.9566 34.0789 13.3268 33.9804 13.8963C33.2416 18.2338 32.4947 22.5713 31.7478 26.8994C31.4112 28.8546 31.0747 30.8003 30.7382 32.746C30.5248 33.9704 29.5644 34.3785 28.6943 33.6097C26.4371 31.6166 24.1799 29.6139 21.9226 27.6112C21.7257 27.4309 21.5122 27.2411 21.2414 27.0038Z" fill="#0B5944"/>
</svg>
